<?xml version="1.0"?><svg xmlns="http://www.w3.org/2000/svg" width="460" height="460"><rect x="0" y="0" width="100%" height="100%" fill="rgb(9, 132, 227)" /><rect x="0" y="6" width="100%" height="7" opacity="0.037333333333333" fill="#ddd" /><rect x="0" y="19" width="100%" height="14" opacity="0.098" fill="#222" /><rect x="0" y="48" width="100%" height="10" opacity="0.063333333333333" fill="#222" /><rect x="0" y="67" width="100%" height="10" opacity="0.063333333333333" fill="#222" /><rect x="0" y="89" width="100%" height="14" opacity="0.098" fill="#222" /><rect x="0" y="112" width="100%" height="9" opacity="0.054666666666667" fill="#ddd" /><rect x="0" y="130" width="100%" height="15" opacity="0.10666666666667" fill="#ddd" /><rect x="0" y="165" width="100%" height="18" opacity="0.13266666666667" fill="#222" /><rect x="0" y="191" width="100%" height="7" opacity="0.037333333333333" fill="#ddd" /><rect x="0" y="207" width="100%" height="6" opacity="0.028666666666667" fill="#222" /><rect x="0" y="225" width="100%" height="15" opacity="0.10666666666667" fill="#ddd" /><rect x="0" y="259" width="100%" height="7" opacity="0.037333333333333" fill="#ddd" /><rect x="0" y="275" width="100%" height="20" opacity="0.15" fill="#222" /><rect x="0" y="300" width="100%" height="16" opacity="0.11533333333333" fill="#222" /><rect x="0" y="327" width="100%" height="10" opacity="0.063333333333333" fill="#222" /><rect x="0" y="351" width="100%" height="19" opacity="0.14133333333333" fill="#ddd" /><rect x="0" y="390" width="100%" height="13" opacity="0.089333333333333" fill="#ddd" /><rect x="0" y="417" width="100%" height="7" opacity="0.037333333333333" fill="#ddd" /><rect x="0" y="440" width="100%" height="20" opacity="0.15" fill="#222" /><rect x="6" y="0" width="7" height="100%" opacity="0.037333333333333" fill="#ddd" /><rect x="19" y="0" width="14" height="100%" opacity="0.098" fill="#222" /><rect x="48" y="0" width="10" height="100%" opacity="0.063333333333333" fill="#222" /><rect x="67" y="0" width="10" height="100%" opacity="0.063333333333333" fill="#222" /><rect x="89" y="0" width="14" height="100%" opacity="0.098" fill="#222" /><rect x="112" y="0" width="9" height="100%" opacity="0.054666666666667" fill="#ddd" /><rect x="130" y="0" width="15" height="100%" opacity="0.10666666666667" fill="#ddd" /><rect x="165" y="0" width="18" height="100%" opacity="0.13266666666667" fill="#222" /><rect x="191" y="0" width="7" height="100%" opacity="0.037333333333333" fill="#ddd" /><rect x="207" y="0" width="6" height="100%" opacity="0.028666666666667" fill="#222" /><rect x="225" y="0" width="15" height="100%" opacity="0.10666666666667" fill="#ddd" /><rect x="259" y="0" width="7" height="100%" opacity="0.037333333333333" fill="#ddd" /><rect x="275" y="0" width="20" height="100%" opacity="0.15" fill="#222" /><rect x="300" y="0" width="16" height="100%" opacity="0.11533333333333" fill="#222" /><rect x="327" y="0" width="10" height="100%" opacity="0.063333333333333" fill="#222" /><rect x="351" y="0" width="19" height="100%" opacity="0.14133333333333" fill="#ddd" /><rect x="390" y="0" width="13" height="100%" opacity="0.089333333333333" fill="#ddd" /><rect x="417" y="0" width="7" height="100%" opacity="0.037333333333333" fill="#ddd" /><rect x="440" y="0" width="20" height="100%" opacity="0.15" fill="#222" /></svg>